<svg id="visual" viewBox="0 0 960 540" width="960" height="540" xmlns="http://www.w3.org/2000/svg"
     xmlns:xlink="http://www.w3.org/1999/xlink" version="1.1">
    <!--    <rect x="0" y="0" width="960" height="540" fill="#001220"></rect>-->
    <path d="M0 392L22.8 390.3C45.7 388.7 91.3 385.3 137 380.5C182.7 375.7 228.3 369.3 274 362.3C319.7 355.3 365.3 347.7 411.2 351.7C457 355.7 503 371.3 548.8 378.7C594.7 386 640.3 385 686 373.8C731.7 362.7 777.3 341.3 823 342.5C868.7 343.7 914.3 367.3 937.2 379.2L960 391L960 541L937.2 541C914.3 541 868.7 541 823 541C777.3 541 731.7 541 686 541C640.3 541 594.7 541 548.8 541C503 541 457 541 411.2 541C365.3 541 319.7 541 274 541C228.3 541 182.7 541 137 541C91.3 541 45.7 541 22.8 541L0 541Z"
          fill="#4ade80"></path>
    <path d="M0 359L22.8 358.3C45.7 357.7 91.3 356.3 137 356.8C182.7 357.3 228.3 359.7 274 367C319.7 374.3 365.3 386.7 411.2 388C457 389.3 503 379.7 548.8 378.7C594.7 377.7 640.3 385.3 686 395.7C731.7 406 777.3 419 823 419.5C868.7 420 914.3 408 937.2 402L960 396L960 541L937.2 541C914.3 541 868.7 541 823 541C777.3 541 731.7 541 686 541C640.3 541 594.7 541 548.8 541C503 541 457 541 411.2 541C365.3 541 319.7 541 274 541C228.3 541 182.7 541 137 541C91.3 541 45.7 541 22.8 541L0 541Z"
          fill="#00d7a5"></path>
    <path d="M0 451L22.8 443.7C45.7 436.3 91.3 421.7 137 412.8C182.7 404 228.3 401 274 404.5C319.7 408 365.3 418 411.2 423.7C457 429.3 503 430.7 548.8 433.8C594.7 437 640.3 442 686 444.5C731.7 447 777.3 447 823 443C868.7 439 914.3 431 937.2 427L960 423L960 541L937.2 541C914.3 541 868.7 541 823 541C777.3 541 731.7 541 686 541C640.3 541 594.7 541 548.8 541C503 541 457 541 411.2 541C365.3 541 319.7 541 274 541C228.3 541 182.7 541 137 541C91.3 541 45.7 541 22.8 541L0 541Z"
          fill="#00cebe"></path>
    <path d="M0 485L22.8 476.3C45.7 467.7 91.3 450.3 137 443.7C182.7 437 228.3 441 274 445.7C319.7 450.3 365.3 455.7 411.2 462.3C457 469 503 477 548.8 473.5C594.7 470 640.3 455 686 453.8C731.7 452.7 777.3 465.3 823 471.8C868.7 478.3 914.3 478.7 937.2 478.8L960 479L960 541L937.2 541C914.3 541 868.7 541 823 541C777.3 541 731.7 541 686 541C640.3 541 594.7 541 548.8 541C503 541 457 541 411.2 541C365.3 541 319.7 541 274 541C228.3 541 182.7 541 137 541C91.3 541 45.7 541 22.8 541L0 541Z"
          fill="#00c3cd"></path>
    <path d="M0 502L22.8 499.8C45.7 497.7 91.3 493.3 137 493C182.7 492.7 228.3 496.3 274 500.8C319.7 505.3 365.3 510.7 411.2 507C457 503.3 503 490.7 548.8 490.2C594.7 489.7 640.3 501.3 686 504C731.7 506.7 777.3 500.3 823 500.5C868.7 500.7 914.3 507.3 937.2 510.7L960 514L960 541L937.2 541C914.3 541 868.7 541 823 541C777.3 541 731.7 541 686 541C640.3 541 594.7 541 548.8 541C503 541 457 541 411.2 541C365.3 541 319.7 541 274 541C228.3 541 182.7 541 137 541C91.3 541 45.7 541 22.8 541L0 541Z"
          fill="#06b6d4"></path>
</svg>